<?xml version="1.0" encoding="UTF-8" standalone="no"?>
<!-- Created with Inkscape (http://www.inkscape.org/) -->

<svg
   xmlns:dc="http://purl.org/dc/elements/1.1/"
   xmlns:cc="http://creativecommons.org/ns#"
   xmlns:rdf="http://www.w3.org/1999/02/22-rdf-syntax-ns#"
   xmlns:svg="http://www.w3.org/2000/svg"
   xmlns="http://www.w3.org/2000/svg"
   xmlns:sodipodi="http://sodipodi.sourceforge.net/DTD/sodipodi-0.dtd"
   xmlns:inkscape="http://www.inkscape.org/namespaces/inkscape"
   width="16pt"
   height="16pt"
   viewBox="0 0 5.6444442 5.6444446"
   version="1.1"
   id="svg8"
   inkscape:version="0.92.2 (5c3e80d, 2017-08-06)"
   sodipodi:docname="safari-pinned-tab.svg"
   inkscape:export-filename="C:\Users\Luiz Lima\Documents\GitHub\quartermaster-frontend\public\img\icons\mstile-150x150.png"
   inkscape:export-xdpi="13.333333"
   inkscape:export-ydpi="13.333333">
  <defs
     id="defs2" />
  <sodipodi:namedview
     id="base"
     pagecolor="#ffffff"
     bordercolor="#666666"
     borderopacity="1.0"
     inkscape:pageopacity="1"
     inkscape:pageshadow="2"
     inkscape:zoom="11.2"
     inkscape:cx="8.2811455"
     inkscape:cy="15.780146"
     inkscape:document-units="mm"
     inkscape:current-layer="layer1"
     showgrid="false"
     units="pt"
     inkscape:window-width="1600"
     inkscape:window-height="837"
     inkscape:window-x="-8"
     inkscape:window-y="-8"
     inkscape:window-maximized="1"
     inkscape:pagecheckerboard="true" />
  <metadata
     id="metadata5">
    <rdf:RDF>
      <cc:Work
         rdf:about="">
        <dc:format>image/svg+xml</dc:format>
        <dc:type
           rdf:resource="http://purl.org/dc/dcmitype/StillImage" />
        <dc:title></dc:title>
      </cc:Work>
    </rdf:RDF>
  </metadata>
  <g
     inkscape:label="Camada 1"
     inkscape:groupmode="layer"
     id="layer1"
     transform="translate(0,-291.35554)">
    <g
       aria-label="Q"
       transform="matrix(0.10759328,0,0,0.10759328,105.12851,284.10539)"
       style="font-style:normal;font-variant:normal;font-weight:normal;font-stretch:normal;font-size:40px;line-height:1.25;font-family:Roboto;-inkscape-font-specification:'Roboto,  weight=250';font-variant-ligatures:normal;font-variant-caps:normal;font-variant-numeric:normal;font-feature-settings:normal;text-align:start;letter-spacing:0px;word-spacing:0px;writing-mode:lr-tb;text-anchor:start;fill:#000000;fill-opacity:1;stroke:none"
       id="flowRoot815">
      <path
         d="m -939.81641,94.767578 q 0,2.089844 -0.5664,3.945313 -0.56641,1.835939 -1.6211,3.339839 l 4.25782,4.33594 -4.23828,3.26172 -4.10157,-4.10156 q -1.26953,0.64453 -2.71484,0.95703 -1.44531,0.33203 -3.04688,0.33203 -5.41015,0 -8.76953,-3.39844 -3.35937,-3.41797 -3.35937,-8.671872 v -5.117187 q 0,-5.234375 3.33984,-8.652344 3.35938,-3.417969 8.75,-3.417969 5.35156,0 8.71094,3.417969 3.35937,3.417969 3.35937,8.652344 z m -6.58203,-5.15625 q 0,-3.046875 -1.44531,-5 -1.42578,-1.953125 -4.04297,-1.953125 -2.67578,0 -4.10156,1.953125 -1.40625,1.933594 -1.40625,5 v 5.15625 q 0,3.085938 1.42578,5.039063 1.44531,1.953129 4.12109,1.953129 2.59766,0 4.02344,-1.953129 1.42578,-1.953125 1.42578,-5.039063 z"
         id="path823"
         inkscape:connector-curvature="0" />
    </g>
  </g>
</svg>
